<svg xmlns="http://www.w3.org/2000/svg" version="1.1" xmlns:xlink="http://www.w3.org/1999/xlink" xmlns:svgjs="http://svgjs.com/svgjs" width="600" height="1000" preserveAspectRatio="none" viewBox="0 0 600 1000"><g mask="url(&quot;#SvgjsMask1405&quot;)" fill="none"><rect width="600" height="1000" x="0" y="0" fill="url(#SvgjsLinearGradient1406)"></rect><path d="M6 1000L1006 0L1196.5 0L196.5 1000z" fill="url(#SvgjsLinearGradient1407)"></path><path d="M227 1000L1227 0L1359 0L359 1000z" fill="url(#SvgjsLinearGradient1407)"></path><path d="M570 1000L-430 0L-590.5 0L409.5 1000z" fill="url(#SvgjsLinearGradient1408)"></path><path d="M385 1000L-615 0L-705 0L295 1000z" fill="url(#SvgjsLinearGradient1408)"></path><path d="M186.24783030048144 1000L600 586.2478303004814L600 1000z" fill="url(#SvgjsLinearGradient1407)"></path><path d="M0 1000L413.75216969951856 1000L 0 586.2478303004814z" fill="url(#SvgjsLinearGradient1408)"></path></g><defs><mask id="SvgjsMask1405"><rect width="600" height="1000" fill="#ffffff"></rect></mask><linearGradient x1="-16.67%" y1="10%" x2="116.67%" y2="90%" gradientUnits="userSpaceOnUse" id="SvgjsLinearGradient1406"><stop stop-color="rgba(0, 0, 0, 1)" offset="0"></stop><stop stop-color="rgba(0, 69, 158, 1)" offset="0.68"></stop></linearGradient><linearGradient x1="0%" y1="100%" x2="100%" y2="0%" id="SvgjsLinearGradient1407"><stop stop-color="rgba(15, 70, 185, 0.2)" offset="0"></stop><stop stop-opacity="0" stop-color="rgba(15, 70, 185, 0.2)" offset="0.66"></stop></linearGradient><linearGradient x1="100%" y1="100%" x2="0%" y2="0%" id="SvgjsLinearGradient1408"><stop stop-color="rgba(15, 70, 185, 0.2)" offset="0"></stop><stop stop-opacity="0" stop-color="rgba(15, 70, 185, 0.2)" offset="0.66"></stop></linearGradient></defs></svg>